<svg version="1.1" id="Layer_1" xmlns="http://www.w3.org/2000/svg" x="0" y="0" viewBox="0 0 90 67" xml:space="preserve"><g id="Page-1"><g id="Landing" transform="translate(-1890 -1233)"><g id="Benefits" transform="translate(490 1224)"><g id="_x34_" transform="translate(1310 9)"><path id="Rectangle-2" d="M130 10c6.6 0 12.4 3.2 16 8h13.5c1.4 0 2.5 1.1 2.5 2.5s-1.1 2.5-2.5 2.5h-10.8c.6 1.6 1 3.3 1.2 5h.6c1.4 0 2.5 1.1 2.5 2.5s-1.1 2.5-2.5 2.5h-.5v6c0 11-9 20-20 20h-6.8l-6.6 6.6c-1.2 1.2-3.1 1.2-4.2 0l-7.3-7.3C96.4 56.1 90 48.3 90 39v-9c0-11 9-20 20-20h20zm0 5h-20c-8.3 0-15 6.7-15 15v9c0 6.9 4.7 12.8 11.2 14.5.9.2 1.7.7 2.3 1.3l5.9 5.9 5.2-5.2c.9-.9 2.2-1.5 3.5-1.5h6.8c8.3 0 15-6.7 15-15v-9c.1-8.3-6.6-15-14.9-15zm-9.5 22c1.4 0 2.5 1.1 2.5 2.5s-1.1 2.5-2.5 2.5h-10c-1.4 0-2.5-1.1-2.5-2.5s1.1-2.5 2.5-2.5h10zm9-10c1.4 0 2.5 1.1 2.5 2.5s-1.1 2.5-2.5 2.5h-19c-1.4 0-2.5-1.1-2.5-2.5s1.1-2.5 2.5-2.5h19zm30.4-27C171 0 180 9 180 20.2v9.1c0 9.4-6.4 17.3-15 19.5l-7.3 7.3c-1.2 1.2-3.1 1.2-4.3 0l-6.4-6.5c.9-1.4 1.6-3 2.2-4.7.4.2.8.5 1.2.9l5.3 5.3 5.9-5.9c.6-.6 1.4-1.1 2.3-1.3 6.6-1.7 11.3-7.7 11.3-14.6v-9.1c0-8.4-6.7-15.1-15.1-15.1H140c-4.4 0-8.4 1.9-11.2 5h-6.2c3.5-6 10-10 17.4-10h19.9z" fill="#d2202c"/></g></g></g></g></svg>