<svg version="1.1" id="Layer_1" xmlns="http://www.w3.org/2000/svg" x="0" y="0" viewBox="0 0 64 72" xml:space="preserve"><g id="Page-1"><g id="Landing" transform="translate(-593 -1234)"><g id="Benefits" transform="translate(490 1224)"><g id="_x31_" transform="translate(0 10)"><g id="Group-3" transform="translate(103)"><path id="Shape" d="M32 0c4.8 0 9.6.7 15.1 2.2 4.9 1.3 9.9 3.2 15 5.6 1.1.4 1.9 1.5 1.9 2.8 0 14.9-1.9 26.6-6.7 36.2-4.8 9.7-12.4 17.4-23.6 24.4-1 .6-2.2.6-3.2 0-11.3-7-18.9-14.7-23.7-24.4C2 37.2 0 25.6 0 10.6c0-1.3.8-2.4 1.9-2.8C7 5.4 12 3.6 16.9 2.2 22.4.7 27.2 0 32 0zm23.3 35.9H32v29.5c9.5-6.1 15.9-12.8 20.1-21.1 1.2-2.7 2.3-5.4 3.2-8.4zM32 5.8c-4.3 0-8.6.7-13.6 2-4.2 1.1-8.4 2.7-12.6 4.6.1 9.1 1 16.8 2.9 23.4H32v-30z" fill="#d2202c"/></g></g></g></g></g></svg>