<svg version="1.1" id="Layer_1" xmlns="http://www.w3.org/2000/svg" x="0" y="0" viewBox="0 0 86 85" xml:space="preserve"><g id="Page-1"><g id="Landing" transform="translate(-1019 -1227)"><g id="Benefits" transform="translate(490 1224)"><g id="_x32_" transform="translate(437 3)"><g id="Group-5" transform="translate(92)"><path id="Oval" d="M43 19c12.7 0 23 10.3 23 23S55.7 65 43 65 20 54.7 20 42s10.3-23 23-23zm0 5c-9.9 0-18 8.1-18 18s8.1 18 18 18 18-8.1 18-18-8.1-18-18-18zm8.1 13.2c1 1 1 2.6 0 3.5l-7.9 7.9c-1 1-2.6 1-3.5 0l-4.9-4.9c-1-1-1-2.6 0-3.5s2.6-1 3.5 0l3.2 3.2 6.1-6.1c.9-1 2.5-1 3.5-.1zM11 53.7l-2 .9 1.6 3.4-1.3.6-1.5-3.2-1.8.8 1.5 3.2-1.3.6-1.6-3.4-1.9.9 2.7 5.9 8.3-3.9-2.7-5.8zm3.8 7.6l-1.7 1.4 2.3 2.8-5.4 4.4 1.7 2.1 7.1-5.9-4-4.8zm5.8 6.4l-5.8 7.1 2.1 1.7 5.8-7.1-2.1-1.7zm5.5 7.5l-3-1.6-.9 1.8 3 1.6-.8 1.6-3.3-1.7-1 1.9 5.7 2.9 4.2-8.2-2.4-1.2-1.5 2.9zm11.4 4.9c-.3 1.6-1.2 2.4-2.3 2.2-1.1-.2-1.7-1.3-1.4-2.9.3-1.6 1.2-2.4 2.3-2.2 1.2.2 1.7 1.4 1.4 2.9zm-1-5c-2.8-.5-4.9.9-5.4 3.8s.9 5 3.7 5.5c2.8.5 4.9-.9 5.4-3.8.6-2.9-.9-5-3.7-5.5zm11.4 7.6c-.7.1-1.3-.3-1.4-1-.1-.7.3-1.2 1.1-1.3l1.1-.1.3 2.3-1.1.1zm.2-7.3l.4 3-.9.1-1.8-2.8-3 .4 2.2 3.2c-.9.6-1.3 1.7-1.1 2.8.3 1.9 1.7 2.9 4.1 2.6l4-.5-1.2-9.2-2.7.4zm11.4 3.9c-.8.4-1.5.2-1.8-.6-.4-.8-.1-1.4.8-1.8l.7-.3 1.1 2.4-.8.3zm-2.3-6.8l1 2.3-1.2.5c-2 .9-2.7 2.7-1.9 4.5.8 1.9 2.6 2.5 4.5 1.6l3.8-1.7-3.8-8.3-2.4 1.1zm16-7.2l.7-.9 1.9 1.4-.7.9c-.4.6-1.1.7-1.7.3-.5-.4-.6-1.1-.2-1.7zM70 61.6l2.5 1.8-.5.7-3.3-.7-1.8 2.4 3.8.7c-.2 1 .3 2.1 1.2 2.7 1.6 1.2 3.3.8 4.7-1.1l2.4-3.3-7.4-5.5-1.6 2.3zm2.6-4.3l2 .8 1.3-3.5 1.4.5-1.2 3.3 1.8.7 1.2-3.3 1.4.5-1.3 3.5 2 .8 2.3-6-8.6-3.2-2.3 5.9zm10.5-11.4c-.1.7-.4 1.1-1 1-.6 0-.9-.5-.8-1.2l.1-1 1.8.1-.1 1.1zm-3.4-.2c-.1.8-.5 1.3-1.1 1.2-.7-.1-1-.6-1-1.4l.1-1.1 2.1.2-.1 1.1zm-3.6-4.2l-.4 4.6c-.2 2 .8 3.3 2.4 3.4 1.2.1 2.2-.9 2.4-2.1h.1c0 1.1.8 1.9 1.8 2 1.4.1 2.4-.9 2.5-2.8l.4-4.5-9.2-.6zm-2-10.1l5.1-1.4-4.5 3.3.4 1.4 5.6.7-5.1 1.4.6 2.3 8.9-2.3-.8-3-5.7-.6 4.7-3.4-.8-3-8.9 2.3.5 2.3zm-1.9-4.3l1.8-1.2-2.1-3.2 1.2-.8 1.9 3 1.6-1.1-1.9-3 1.2-.8 2.1 3.2 1.8-1.2-3.6-5.4-7.7 5 3.7 5.5zm-4.9-7.4l5.7-7.2-2.5-1.9-4.9 2.9L67.3 8l-2.5-1.9-5.7 7.2 1.9 1.5 3.3-4.2-1.6 5.4 1.1.9 4.9-2.8-3.3 4.2 1.9 1.4zM45.1 7.3l.5-4.9.8.1c1.3.1 2 1.1 1.8 2.6-.2 1.7-1 2.4-2.3 2.3l-.8-.1zM51 5.4c.3-2.9-1.1-4.7-3.9-5L43.2 0l-1 9.1 3.9.4c2.7.4 4.5-1.2 4.9-4.1zM39.8 9.3l-.4-2.1-3.7.7-.3-1.4 3.5-.6-.3-1.9-3.5.6-.3-1.5 3.7-.7-.4-2.1-6.4 1.2 1.6 9 6.5-1.2zm-8.6 2l-3.5-8.5-2.5 1 3.5 8.5 2.5-1zm-7.4 3.9L22 12.5l2.8-1.9-1.1-1.7-2.8 1.9-1-1.5L23 7.2l-1.2-1.8L16.4 9l5.1 7.6 2.3-1.4zm-4 3.1l-6.5-6.5-1.9 1.9 6.5 6.5 1.9-1.9zm-9.7 4.2l-.6.9-2-1.2.6-.9c.4-.6 1.1-.8 1.6-.4.7.3.8.9.4 1.6zm3.6 3.5l-2.6-1.6.5-.8 3.4.4 1.6-2.6-3.9-.4c.1-1.1-.5-2-1.4-2.6-1.7-1-3.3-.6-4.6 1.5l-2.2 3.5 7.8 4.8 1.4-2.2zm-2.3 4.5l-2.1-.6-1 3.6-1.4-.4 1-3.4-1.9-.5-1 3.4-1.4-.4 1-3.6-2.1-.6-1.8 6.2 8.8 2.5 1.9-6.2zM9.2 41.3L0 38.7v3L6.7 43v.1L.1 44.7v3.1l9.1-2.9v-3.6z" fill="#d2202c"/></g></g></g></g></g></svg>